<svg xmlns="http://www.w3.org/2000/svg" xmlns:xlink="http://www.w3.org/1999/xlink" viewBox="0 0 78 19"><g transform="translate(0.708 1.458)" id="ss12792895725_1"><path d="M 25.225 14.126 L 30.133 -0.123 L 33.09 -0.123 L 38.058 14.128 L 35.081 14.128 L 34.135 11.098 L 29.049 11.098 L 28.124 14.128 L 25.225 14.128 Z M 30.978 4.78 L 29.717 8.886 L 33.442 8.886 L 32.18 4.78 L 31.609 2.588 L 31.569 2.588 C 31.333 3.544 31.135 4.275 30.978 4.78 Z" fill="rgb(117,131,116)"></path><path d="M 39.062 14.126 L 39.062 -0.123 L 41.743 -0.123 L 41.743 14.128 L 39.062 14.128 Z" fill="rgb(117,131,116)"></path><path d="M 43.732 17.474 L 43.732 15.34 L 44.677 15.34 C 45.675 15.34 46.175 14.876 46.175 13.945 C 46.175 13.494 45.919 12.569 45.406 11.173 L 42.687 3.899 L 45.505 3.899 L 47.003 8.502 L 47.653 10.732 L 47.694 10.732 C 47.878 9.868 48.076 9.126 48.284 8.502 L 49.703 3.899 L 52.403 3.899 L 48.875 14.382 C 48.48 15.551 48.037 16.358 47.545 16.803 C 47.052 17.247 46.306 17.47 45.308 17.47 L 43.73 17.47 Z" fill="rgb(117,131,116)"></path><path d="M 57.311 14.425 C 55.865 14.425 54.735 14.104 53.922 13.458 C 53.108 12.815 52.661 11.935 52.583 10.817 L 55.066 10.817 C 55.238 11.947 55.974 12.51 57.274 12.51 C 57.865 12.51 58.323 12.403 58.645 12.191 C 58.966 11.978 59.127 11.691 59.127 11.333 C 59.127 11.199 59.103 11.081 59.059 10.974 C 59.012 10.868 58.933 10.772 58.823 10.685 C 58.711 10.599 58.614 10.53 58.527 10.475 C 58.442 10.423 58.294 10.368 58.083 10.315 C 57.875 10.262 57.712 10.223 57.601 10.195 C 57.489 10.167 57.298 10.132 57.031 10.085 C 56.762 10.04 56.574 10.002 56.469 9.975 C 55.918 9.868 55.467 9.758 55.118 9.646 C 54.77 9.534 54.406 9.366 54.025 9.146 C 53.644 8.925 53.357 8.628 53.167 8.248 C 52.976 7.871 52.881 7.414 52.881 6.884 C 52.881 5.822 53.267 5.013 54.035 4.454 C 54.805 3.895 55.792 3.617 57.002 3.617 C 58.302 3.617 59.324 3.92 60.065 4.524 C 60.808 5.129 61.232 5.955 61.337 7.006 L 58.914 7.006 C 58.809 6.01 58.157 5.511 56.963 5.511 C 56.423 5.511 56.001 5.611 55.692 5.81 C 55.382 6.009 55.229 6.288 55.229 6.646 C 55.229 6.766 55.252 6.875 55.296 6.975 C 55.343 7.075 55.42 7.162 55.533 7.233 C 55.643 7.306 55.751 7.367 55.858 7.412 C 55.962 7.457 56.113 7.504 56.311 7.55 C 56.506 7.595 56.678 7.636 56.824 7.67 C 56.968 7.703 57.164 7.743 57.414 7.79 C 57.663 7.835 57.859 7.872 58.004 7.9 C 58.426 7.993 58.77 8.077 59.039 8.148 C 59.308 8.221 59.62 8.341 59.975 8.506 C 60.329 8.672 60.609 8.859 60.812 9.065 C 61.016 9.272 61.194 9.551 61.344 9.902 C 61.495 10.254 61.571 10.663 61.571 11.128 C 61.571 12.138 61.18 12.939 60.4 13.529 C 59.618 14.122 58.591 14.415 57.315 14.415 L 57.315 14.425 Z" fill="rgb(117,131,116)"></path><path d="M 62.773 2.308 L 62.773 -0.123 L 65.453 -0.123 L 65.453 2.308 Z M 62.773 14.126 L 62.773 3.901 L 65.453 3.901 L 65.453 14.126 Z" fill="rgb(117,131,116)"></path><path d="M 75.782 12.881 C 74.797 13.911 73.528 14.427 71.98 14.427 C 70.431 14.427 69.161 13.913 68.176 12.881 C 67.191 11.852 66.698 10.565 66.698 9.024 C 66.698 7.483 67.191 6.197 68.176 5.166 C 69.161 4.137 70.431 3.621 71.98 3.621 C 73.528 3.621 74.797 4.135 75.782 5.166 C 76.767 6.197 77.261 7.483 77.261 9.024 C 77.261 10.565 76.767 11.85 75.782 12.881 Z M 71.98 12.354 C 72.781 12.354 73.408 12.051 73.862 11.447 C 74.315 10.842 74.542 10.035 74.542 9.026 C 74.542 8.016 74.315 7.205 73.862 6.595 C 73.41 5.985 72.782 5.678 71.98 5.678 C 71.176 5.678 70.533 5.981 70.086 6.585 C 69.641 7.189 69.415 8.002 69.415 9.026 C 69.415 10.049 69.638 10.842 70.086 11.447 C 70.532 12.051 71.163 12.354 71.98 12.354 Z" fill="rgb(117,131,116)"></path><path d="M 22.474 13.28 L 15.135 0.203 C 14.859 -0.255 14.2 -0.253 13.928 0.209 L 11.511 4.549 C 11.284 4.963 10.854 5.218 10.387 5.218 L 5.448 5.218 C 4.987 5.218 4.56 5.468 4.332 5.873 L 0.027 13.284 C -0.238 13.754 0.096 14.145 0.631 14.145 L 5.474 14.145 C 5.723 14.145 5.954 14.009 6.078 13.79 L 10.012 7.225 C 10.429 6.485 11.384 6.376 11.966 6.888 C 11.953 6.943 16.075 13.784 16.075 13.784 C 16.201 14.007 16.437 14.147 16.692 14.147 L 22.064 14.147 C 22.61 14.147 22.729 13.729 22.478 13.282 Z" fill="rgb(117,131,116)"></path></g></svg>