<svg xmlns="http://www.w3.org/2000/svg" xmlns:xlink="http://www.w3.org/1999/xlink" viewBox="0 0 17 16"><path d="M 1.836 8.333 C 1.836 7.597 2.433 7 3.169 7 C 4.274 7 5.169 7.895 5.169 9 L 5.169 11.667 C 5.169 12.771 4.274 13.667 3.169 13.667 C 2.433 13.667 1.836 13.07 1.836 12.333 Z" fill="transparent" stroke-width="1.25" stroke="rgb(198, 242, 182)" stroke-linecap="round" stroke-linejoin="round" stroke-dasharray=""></path><path d="M 10.816 5.207 L 10.639 5.78 C 10.493 6.25 10.421 6.485 10.477 6.67 C 10.522 6.821 10.621 6.95 10.757 7.035 C 10.924 7.14 11.177 7.14 11.684 7.14 L 11.953 7.14 C 13.666 7.14 14.523 7.14 14.927 7.647 C 14.974 7.705 15.015 7.767 15.05 7.832 C 15.362 8.397 15.008 9.159 14.3 10.683 C 13.651 12.082 13.326 12.781 12.723 13.193 C 12.664 13.232 12.604 13.27 12.543 13.305 C 11.908 13.669 11.121 13.669 9.548 13.669 L 9.207 13.669 C 7.301 13.669 6.348 13.669 5.756 13.096 C 5.164 12.522 5.164 11.598 5.164 9.752 L 5.164 9.103 C 5.164 8.132 5.164 7.647 5.336 7.203 C 5.509 6.759 5.838 6.394 6.498 5.663 L 9.225 2.643 C 9.294 2.567 9.328 2.529 9.358 2.503 C 9.64 2.258 10.074 2.286 10.32 2.564 C 10.347 2.594 10.376 2.636 10.433 2.72 C 10.523 2.851 10.568 2.916 10.608 2.981 C 10.959 3.562 11.066 4.252 10.905 4.907 C 10.887 4.981 10.863 5.056 10.816 5.207 Z" fill="transparent" stroke-width="1.25" stroke="rgb(198, 242, 182)" stroke-linecap="round" stroke-linejoin="round" stroke-dasharray=""></path></svg>